# xmcd
#
# Track frame offsets: 
#        150
#        16702
#        35761
#        50222
#        67077
#        94557
#        110198
#        129689
#        152299
#        171950
#        192213
#
# Disc length: 2778 seconds
#
# Revision: 3
# Processed by: cddbd v1.5.2PL0 Copyright (c) Steve Scherf et al.
# Submitted via: ExactAudioCopyFreeDBPlugin 1.0
#
DISCID=960ad80b
DTITLE=Eliza Carthy - Dreams Of Breathing Underwater
DYEAR=2008
DGENRE=Folk
TTITLE0=Follow The Dollar
TTITLE1=Two Tears
TTITLE2=Rows Of Angels
TTITLE3=Rosalie
TTITLE4=Mr Magnifico
TTITLE5=Like I Care
TTITLE6=Lavenders
TTITLE7=Little Bigman
TTITLE8=Simple Things
TTITLE9=Hug You Like A Mountain
TTITLE10=Oranges And Seasalt
EXTD=YEAR: 2008
EXTT0=
EXTT1=
EXTT2=
EXTT3=
EXTT4=
EXTT5=
EXTT6=
EXTT7=
EXTT8=
EXTT9=
EXTT10=
PLAYORDER=
